<?xml version="1.0" encoding="UTF-8" standalone="no"?>
<!DOCTYPE svg PUBLIC "-//W3C//DTD SVG 1.1//EN" "http://www.w3.org/Graphics/SVG/1.1/DTD/svg11.dtd">
<svg version="1.1" xmlns="http://www.w3.org/2000/svg" xmlns:xlink="http://www.w3.org/1999/xlink" preserveAspectRatio="xMidYMid meet" viewBox="0 0 24 24" width="24" height="24"><defs><path d="M0 0L24 0L24 24L0 24L0 0Z" id="c1mWQCyq1p"></path><path d="M5 9C5 14.25 12 22 12 22C12 22 19 14.25 19 9C19 5.13 15.87 2 12 2C8.13 2 5 5.13 5 9ZM9.5 9C9.5 7.62 10.62 6.5 12 6.5C13.38 6.5 14.5 7.62 14.5 9C14.5 10.38 13.38 11.5 12 11.5C10.62 11.5 9.5 10.38 9.5 9Z" id="bjUIqEZNY"></path><path d="M0 0L24 0L24 24L0 24L0 0Z" id="aA9GebcWH"></path></defs><g><g><g><use xlink:href="#c1mWQCyq1p" opacity="1" fill="#000000" fill-opacity="0"></use><g><use xlink:href="#c1mWQCyq1p" opacity="1" fill-opacity="0" stroke="#000000" stroke-width="1" stroke-opacity="0"></use></g></g><g><use xlink:href="#bjUIqEZNY" opacity="1" fill="#ed5100" fill-opacity="1"></use><g><use xlink:href="#bjUIqEZNY" opacity="1" fill-opacity="0" stroke="#000000" stroke-width="1" stroke-opacity="0"></use></g></g><g><use xlink:href="#aA9GebcWH" opacity="1" fill="#000000" fill-opacity="0"></use><g><use xlink:href="#aA9GebcWH" opacity="1" fill-opacity="0" stroke="#000000" stroke-width="1" stroke-opacity="0"></use></g></g></g></g></svg>