<?xml version="1.0" encoding="UTF-8"?>
<!DOCTYPE svg PUBLIC "-//W3C//DTD SVG 1.1//EN" "http://www.w3.org/Graphics/SVG/1.1/DTD/svg11.dtd">
<!-- Creator: CorelDRAW 2019 -->
<svg xmlns="http://www.w3.org/2000/svg" xml:space="preserve" width="210mm" height="297mm" version="1.1" style="shape-rendering:geometricPrecision; text-rendering:geometricPrecision; image-rendering:optimizeQuality; fill-rule:evenodd; clip-rule:evenodd"
viewBox="0 0 21000 29700"
 xmlns:xlink="http://www.w3.org/1999/xlink">
 <defs>
  <style type="text/css">
   <![CDATA[
    .fil0 {fill:#FEFEFE}
   ]]>
  </style>
 </defs>
 <g id="Camada_x0020_1">
  <metadata id="CorelCorpID_0Corel-Layer"/>
  <path class="fil0" d="M6036.14 8847.09l-555.34 0 0 -740.46 -2591.49 0c-203.59,-0.01 -370.23,166.58 -370.22,370.22l-0.01 2036.13 370.24 0.02c-0.02,307.26 248,555.33 555.36,555.35 307.32,-0.01 555.32,-248.02 555.33,-555.35l1110.63 -0.02c0,307.29 248.01,555.36 555.34,555.36 307.34,0 555.34,-248 555.35,-555.34l370.09 0 -0.01 -925.52 -555.34 -740.38 0.07 -0.01zm-2591.48 1943.58c-153.64,-0.01 -277.67,-124.04 -277.66,-277.68 -0.01,-153.64 124.02,-277.67 277.66,-277.67 153.63,-0.01 277.68,124.03 277.68,277.67 -0.01,153.63 -124.04,277.67 -277.68,277.68zm2498.92 -1665.98l362.83 462.79 -825.6 0 0 -462.77 462.77 -0.02zm-277.68 1665.98c-153.62,-0.01 -277.65,-124.06 -277.67,-277.68 0.01,-153.63 124.06,-277.67 277.67,-277.67 153.65,-0.01 277.68,124.03 277.68,277.67 0.01,153.63 -124.04,277.69 -277.68,277.68zm-4800.59 -1260.82c31.82,-1628.93 1378.13,-2923.63 3007.05,-2891.8 334.55,6.53 654.92,68.61 952.65,177.08l-0.01 -0.13 1.45 0.67c145.59,53.14 285.7,117.45 419.44,191.79l5639.87 2578.75 -5758.59 2643.71c-55.22,27.49 -111.42,53.33 -168.53,77.37l-4.8 2.2 -0.01 -0.21c-367.64,154.09 -772.55,235.92 -1196.72,227.65 -1628.93,-31.84 -2923.64,-1378.14 -2891.8,-3007.08z"/>
 </g>
</svg>
