<?xml version="1.0" encoding="UTF-8" standalone="no"?>
<!DOCTYPE svg PUBLIC "-//W3C//DTD SVG 1.1//EN" "http://www.w3.org/Graphics/SVG/1.1/DTD/svg11.dtd">
<svg version="1.1" xmlns="http://www.w3.org/2000/svg" xmlns:xlink="http://www.w3.org/1999/xlink" preserveAspectRatio="xMidYMid meet" viewBox="0 0 24 24" width="24" height="24"><defs><path d="M0 0L24 0L24 24L0 24L0 0Z" id="c1mWQCyq1p"></path><path d="M17 8L17 4C8.6 4 3.93 4 3 4C1.9 4 1 4.9 1 6C1 6.73 1 10.4 1 17C2.2 17 2.87 17 3 17C3 18.66 4.34 20 6 20C7.66 20 9 18.66 9 17C9.6 17 14.4 17 15 17C15 18.66 16.34 20 18 20C19.66 20 21 18.66 21 17C21.13 17 21.8 17 23 17L23 12L20 8L17 8ZM4.5 17C4.5 16.17 5.17 15.5 6 15.5C6.83 15.5 7.5 16.17 7.5 17C7.5 17.83 6.83 18.5 6 18.5C5.17 18.5 4.5 17.83 4.5 17ZM21.46 12L17 12L17 9.5L19.5 9.5L21.46 12ZM16.5 17C16.5 16.17 17.17 15.5 18 15.5C18.83 15.5 19.5 16.17 19.5 17C19.5 17.83 18.83 18.5 18 18.5C17.17 18.5 16.5 17.83 16.5 17Z" id="a3jnQlMQHl"></path></defs><g><g><g><use xlink:href="#c1mWQCyq1p" opacity="1" fill="#000000" fill-opacity="0"></use><g><use xlink:href="#c1mWQCyq1p" opacity="1" fill-opacity="0" stroke="#000000" stroke-width="1" stroke-opacity="0"></use></g></g><g><use xlink:href="#a3jnQlMQHl" opacity="1" fill="#ed5100" fill-opacity="1"></use><g><use xlink:href="#a3jnQlMQHl" opacity="1" fill-opacity="0" stroke="#000000" stroke-width="1" stroke-opacity="0"></use></g></g></g></g></svg>